<svg xmlns="http://www.w3.org/2000/svg" width="800" height="450" viewBox="0 0 800 450">
  <rect width="800" height="450" fill="#ede9fe"/>
  <rect x="60" y="60" width="680" height="330" rx="12" fill="#f5f3ff" stroke="#c4b5fd" stroke-width="2"/>
  <rect x="80" y="80" width="640" height="50" rx="8" fill="#fff" stroke="#e4e0f5" stroke-width="1"/>
  <rect x="96" y="96" width="380" height="20" rx="4" fill="#e4e0f5"/>
  <rect x="492" y="90" width="100" height="32" rx="16" fill="#6d28d9"/>
  <rect x="80" y="148" width="190" height="220" rx="8" fill="#fff" stroke="#e4e0f5" stroke-width="1"/>
  <rect x="96" y="164" width="158" height="100" rx="4" fill="#ede9fe"/>
  <rect x="96" y="276" width="120" height="14" rx="4" fill="#1a1826"/>
  <rect x="96" y="298" width="80" height="10" rx="4" fill="#a78bfa"/>
  <rect x="290" y="148" width="190" height="220" rx="8" fill="#fff" stroke="#e4e0f5" stroke-width="1"/>
  <rect x="306" y="164" width="158" height="100" rx="4" fill="#ede9fe"/>
  <rect x="306" y="276" width="120" height="14" rx="4" fill="#1a1826"/>
  <rect x="306" y="298" width="80" height="10" rx="4" fill="#a78bfa"/>
  <rect x="500" y="148" width="190" height="220" rx="8" fill="#fff" stroke="#e4e0f5" stroke-width="1"/>
  <rect x="516" y="164" width="158" height="100" rx="4" fill="#ede9fe"/>
  <rect x="516" y="276" width="120" height="14" rx="4" fill="#1a1826"/>
  <rect x="516" y="298" width="80" height="10" rx="4" fill="#a78bfa"/>
  <text x="400" y="398" font-family="system-ui, sans-serif" font-size="14" text-anchor="middle" fill="#7c7490">Reemplaza con tu captura real · /public/img/dragones.png</text>
  <text x="400" y="416" font-family="system-ui, sans-serif" font-size="16" font-weight="700" text-anchor="middle" fill="#6d28d9">Dragones y Mazorcas</text>
</svg>
