<svg xmlns="http://www.w3.org/2000/svg" width="800" height="450" viewBox="0 0 800 450">
  <rect width="800" height="450" fill="#ede9fe"/>
  <rect x="60" y="40" width="680" height="50" rx="8" fill="#6d28d9"/>
  <rect x="80" y="52" width="120" height="26" rx="4" fill="#a78bfa"/>
  <rect x="580" y="52" width="80" height="26" rx="18" fill="#fff"/>
  <rect x="60" y="110" width="200" height="290" rx="8" fill="#f5f3ff" stroke="#e4e0f5" stroke-width="1"/>
  <rect x="80" y="130" width="160" height="36" rx="6" fill="#6d28d9"/>
  <rect x="80" y="178" width="160" height="36" rx="6" fill="#ede9fe"/>
  <rect x="80" y="226" width="160" height="36" rx="6" fill="#ede9fe"/>
  <rect x="80" y="274" width="160" height="36" rx="6" fill="#ede9fe"/>
  <rect x="275" y="110" width="465" height="290" rx="8" fill="#fff" stroke="#e4e0f5" stroke-width="1"/>
  <rect x="295" y="130" width="200" height="20" rx="4" fill="#1a1826"/>
  <rect x="295" y="162" width="420" height="12" rx="4" fill="#e4e0f5"/>
  <rect x="295" y="182" width="380" height="12" rx="4" fill="#e4e0f5"/>
  <rect x="295" y="202" width="400" height="12" rx="4" fill="#e4e0f5"/>
  <rect x="295" y="240" width="130" height="40" rx="8" fill="#f5f3ff" stroke="#c4b5fd" stroke-width="1"/>
  <rect x="440" y="240" width="130" height="40" rx="8" fill="#f5f3ff" stroke="#c4b5fd" stroke-width="1"/>
  <text x="400" y="420" font-family="system-ui, sans-serif" font-size="14" text-anchor="middle" fill="#7c7490">Reemplaza con tu captura real · /public/img/isworking.png</text>
  <text x="400" y="438" font-family="system-ui, sans-serif" font-size="16" font-weight="700" text-anchor="middle" fill="#6d28d9">IsWorking</text>
</svg>
